<svg xmlns="http://www.w3.org/2000/svg"  viewBox="0 0 48 48" width="48px" height="48px"><path fill="#73a1b2" d="M43.304,17.87c-0.437-1.92-2.149-3.511-3.978-4.239l-13.351-0.821l-3.369,0.673l-0.691,1.639 l-4.783,20.569l-0.446,4.722c-0.446,1.382-0.554,2.161-0.654,3.61c-0.027,0.396-0.02,0.85,0.274,1.118 c0.239,0.218,0.593,0.241,0.916,0.249c2.014,0.051,4.031,0.081,6.036-0.107c0.621-0.059,1.294-0.153,1.732-0.597 c0.374-0.38,0.494-0.936,0.598-1.459c0.422-2.13,0.844-4.26,1.266-6.39c0.219-1.107,0.509-2.326,1.439-2.967 c0.458-0.316,1.016-0.446,1.566-0.53c1.403-0.215,2.844-0.174,4.227-0.492c1.146-0.264,2.222-0.769,3.256-1.331 c1.336-0.726,2.638-1.571,3.625-2.728c1.14-1.335,1.536-3.383,1.991-5.08C43.467,21.806,43.742,19.79,43.304,17.87z"/><path fill="#4b7bb2" d="M16.686,40.413c0.381-2.221,0.188-3.938,0.663-5.907c0.556-2.302,1.197-4.583,1.922-6.838 c0.096-0.3,0.199-0.607,0.401-0.848c0.542-0.644,1.529-0.571,2.369-0.527c2.028,0.106,3.78,0.149,5.774-0.239 c1.229-0.239,2.779-0.644,3.913-1.174c1.287-0.601,2.493-1.952,3.477-2.976c1.855-1.93,2.871-4.077,3.673-6.632 s0.829-5.396-0.205-7.865c-0.265-0.634-0.601-1.245-1.06-1.757c-0.687-0.768-1.624-1.282-2.606-1.594 c-2.111-0.67-4.015-0.445-6.227-0.326c-3.196,0.173-6.505,0.313-9.692,0.02c-1.64-0.151-3.353-0.354-4.887,0.244 c-0.3,0.117-0.598,0.27-0.804,0.519c-0.236,0.284-0.325,0.659-0.406,1.018c-0.384,1.686-0.876,3.671-1.167,5.376 c-1.49,8.738-2.489,17.667-4.6,26.277c-0.255,1.042-0.385,2.413,0.558,2.924c0.341,0.185,0.746,0.196,1.134,0.202 c1.942,0.034,3.884,0.068,5.825,0.102C15.254,40.422,16.686,40.413,16.686,40.413z"/><path fill="#1e4384" d="M24.554,12.88c-0.693,0.043-1.448,0.119-1.948,0.602c-0.433,0.419-0.572,1.048-0.691,1.639 c-0.787,3.917-1.651,7.296-2.438,11.213l8.797-0.472l3.961-1.259l3.311-2.849l2.413-4.402l1.367-3.721 C34.174,12.913,29.506,12.572,24.554,12.88z"/><path fill="#010101" d="M15.474,40.917c-0.291,0-0.567-0.001-0.74-0.004L8.908,40.81c-0.404-0.007-0.907-0.016-1.362-0.262 c-0.669-0.362-1.352-1.259-0.807-3.482c1.452-5.924,2.393-12.104,3.302-18.082c0.408-2.681,0.829-5.452,1.291-8.161 c0.229-1.342,0.572-2.818,0.904-4.247l0.268-1.156c0.086-0.377,0.192-0.846,0.51-1.228c0.298-0.36,0.718-0.552,1.007-0.665 c1.563-0.607,3.231-0.452,4.845-0.301l0.271,0.025c3.161,0.291,6.485,0.148,9.618-0.022l0.781-0.045 c1.891-0.115,3.677-0.225,5.624,0.394c1.164,0.369,2.142,0.97,2.828,1.737c0.446,0.5,0.822,1.121,1.147,1.897 c1.031,2.463,1.109,5.378,0.222,8.208c-0.943,3.002-2.076,5.044-3.791,6.828l-0.306,0.32c-0.974,1.023-2.078,2.183-3.319,2.763 c-1.422,0.663-3.292,1.068-4.029,1.211c-2.086,0.406-3.904,0.351-5.896,0.248c-0.783-0.042-1.595-0.084-1.96,0.35 c-0.145,0.172-0.231,0.441-0.309,0.679c-0.719,2.238-1.362,4.526-1.911,6.801c-0.249,1.03-0.308,2.002-0.369,3.03 c-0.054,0.888-0.109,1.807-0.287,2.844c-0.041,0.239-0.248,0.414-0.49,0.416C16.688,40.913,16.052,40.917,15.474,40.917z M16.686,40.413h0.01H16.686z M16.68,4.092c-0.799,0-1.577,0.088-2.296,0.368c-0.295,0.115-0.485,0.233-0.6,0.371 c-0.166,0.199-0.237,0.51-0.306,0.812l-0.268,1.161c-0.329,1.414-0.67,2.876-0.893,4.188c-0.461,2.7-0.882,5.467-1.289,8.143 c-0.912,5.999-1.855,12.202-3.319,18.169c-0.177,0.724-0.372,1.995,0.312,2.365c0.241,0.13,0.594,0.137,0.904,0.142l5.825,0.103 c0.331,0.006,1.046,0.003,1.507,0.002c0.119-0.822,0.165-1.583,0.21-2.321c0.064-1.074,0.126-2.088,0.395-3.205 c0.556-2.299,1.205-4.612,1.933-6.873c0.1-0.31,0.224-0.694,0.494-1.017c0.687-0.816,1.806-0.758,2.706-0.709 c1.994,0.103,3.751,0.157,5.725-0.227c0.702-0.137,2.477-0.52,3.798-1.136c1.07-0.5,2.104-1.587,3.018-2.546l0.31-0.324 c1.6-1.665,2.664-3.589,3.558-6.435c0.817-2.605,0.75-5.276-0.189-7.522c-0.282-0.673-0.6-1.202-0.972-1.617 c-0.566-0.634-1.391-1.136-2.385-1.451c-1.77-0.561-3.389-0.464-5.261-0.349l-0.787,0.046c-3.172,0.172-6.538,0.315-9.765,0.019 l-0.271-0.025C18.077,4.158,17.371,4.092,16.68,4.092z"/><path fill="#010101" d="M19.729,45.928c-0.836,0-1.675-0.018-2.52-0.039c-0.41-0.01-0.878-0.048-1.241-0.379 c-0.508-0.465-0.457-1.206-0.436-1.521c0.105-1.533,0.224-2.327,0.677-3.729c0.085-0.262,0.368-0.406,0.629-0.322 c0.263,0.084,0.407,0.367,0.322,0.629c-0.421,1.303-0.531,2.047-0.63,3.49c-0.018,0.247-0.024,0.59,0.112,0.715 c0.107,0.098,0.361,0.112,0.591,0.118c2.02,0.051,3.994,0.081,5.977-0.105c0.546-0.051,1.105-0.128,1.424-0.45 c0.26-0.265,0.363-0.702,0.463-1.205l1.266-6.391c0.25-1.258,0.582-2.548,1.645-3.282c0.562-0.387,1.213-0.526,1.775-0.612 c0.603-0.093,1.212-0.139,1.802-0.184c0.832-0.064,1.617-0.124,2.389-0.301c1.182-0.272,2.293-0.829,3.13-1.283 c1.088-0.592,2.468-1.424,3.483-2.613c0.907-1.063,1.328-2.708,1.699-4.159l0.188-0.725c0.589-2.195,0.701-4.026,0.344-5.598 c-0.369-1.618-1.812-3.144-3.676-3.886c-0.257-0.102-0.382-0.393-0.28-0.649c0.103-0.256,0.394-0.382,0.649-0.279 c2.161,0.86,3.842,2.663,4.281,4.592c0.395,1.735,0.279,3.723-0.352,6.079l-0.186,0.714c-0.398,1.557-0.85,3.322-1.908,4.561 c-1.121,1.314-2.602,2.209-3.766,2.843c-0.893,0.484-2.083,1.079-3.383,1.378c-0.845,0.194-1.705,0.26-2.537,0.324 c-0.571,0.043-1.161,0.089-1.727,0.175c-0.451,0.069-0.965,0.176-1.359,0.447c-0.754,0.521-1.013,1.552-1.231,2.653l-1.266,6.391 c-0.101,0.511-0.239,1.212-0.731,1.712c-0.554,0.562-1.345,0.679-2.042,0.744C22.107,45.892,20.92,45.928,19.729,45.928z"/><path fill="#010101" d="M19.066,28.813c-0.033,0-0.066-0.003-0.1-0.01c-0.271-0.055-0.446-0.318-0.392-0.589 c0.395-1.958,0.917-4.312,1.423-6.588c0.508-2.284,1.033-4.646,1.427-6.604c0.116-0.574,0.274-1.359,0.834-1.9 c0.613-0.592,1.455-0.691,2.265-0.742c4.518-0.28,9.106-0.049,14.872,0.754c0.273,0.038,0.464,0.291,0.426,0.564 c-0.038,0.274-0.292,0.468-0.564,0.426c-5.695-0.792-10.22-1.022-14.671-0.746c-0.649,0.041-1.264,0.107-1.632,0.463 c-0.312,0.3-0.433,0.802-0.549,1.378c-0.396,1.968-0.922,4.335-1.431,6.624c-0.505,2.271-1.027,4.62-1.419,6.568 C19.508,28.649,19.299,28.813,19.066,28.813z"/></svg>