<svg xmlns="http://www.w3.org/2000/svg"  viewBox="0 0 100 100" width="200px" height="200px"><path d="M 64.679688 27.474609 C 63.933002 27.449948 63.104241 27.44747 62.220703 27.482422 C 60.453627 27.552322 58.471502 27.773608 56.509766 28.273438 C 54.54803 28.773266 52.593248 29.55397 50.9375 30.855469 C 50.86112 30.915509 50.811259 31.011708 50.736328 31.074219 C 50.279956 30.268036 49.657095 29.466369 48.527344 29.007812 C 47.633264 28.645366 46.980014 28.632249 46.070312 28.550781 C 45.160612 28.469311 44.133302 28.420841 43.154297 28.388672 C 42.06877 28.353002 41.134109 28.341445 40.433594 28.335938 A 2.0002 2.0002 0 0 0 40.037109 28.300781 L 29.205078 28.117188 A 2.0002 2.0002 0 0 0 27.25 29.5625 L 24.523438 39.013672 C 24.460175 38.424529 24.400636 37.76246 24.337891 37.228516 C 24.151911 35.645875 24.019472 34.502769 23.787109 33.625 C 22.431942 28.506836 16.732422 27.898438 16.732422 27.898438 A 2.0002 2.0002 0 0 0 16.480469 27.886719 L 1.9667969 28.130859 A 2.0002 2.0002 0 0 0 0.80859375 31.736328 C 0.80859375 31.736328 6.6596293 36.173281 8.6914062 38.513672 C 8.5897303 38.396627 8.9093069 38.898425 9.1445312 39.671875 C 9.3797556 40.445325 9.625866 41.511309 9.8652344 42.75 C 10.343971 45.227383 10.803244 48.4083 11.279297 51.671875 C 11.75535 54.93545 12.24898 58.284219 12.816406 61.175781 C 13.383833 64.067343 13.917429 66.418549 14.951172 68.166016 C 15.880208 69.73697 17.436153 70.252664 18.925781 70.583984 C 20.415409 70.915305 22.026544 71.000861 23.558594 71 C 26.622693 70.9983 29.398438 70.607422 29.398438 70.607422 A 2.0002 2.0002 0 0 0 31.046875 69.171875 L 32.951172 62.462891 L 32.841797 68.753906 A 2.0002 2.0002 0 0 0 34.818359 70.789062 L 44.898438 70.900391 A 2.0002 2.0002 0 0 0 46.900391 69.175781 L 47.074219 67.914062 C 49.868347 69.458541 56.125676 72.168947 62.537109 69.773438 C 63.434333 69.438286 64.260092 69.06233 65.048828 68.666016 A 2.0003264 2.0003264 0 0 0 66.933594 70.121094 L 78.34375 70.330078 A 2.0002 2.0002 0 0 0 80.333984 68.757812 L 81.203125 64.78125 L 85.683594 64.751953 L 86.119141 68.537109 A 2.0002 2.0002 0 0 0 88.169922 70.306641 L 98.355469 69.982422 A 2.0002 2.0002 0 0 0 100.26562 67.658203 L 94.179688 30.6875 A 2.0002 2.0002 0 0 0 92.25 29.013672 L 81.427734 28.773438 A 2.0002 2.0002 0 0 0 79.541016 29.994141 L 71.519531 48.984375 C 70.20939 46.94896 68.2521 45.385547 66.488281 44.146484 C 64.606661 42.824667 63.576215 42.367238 62.871094 42.015625 C 62.857654 41.841584 62.838657 41.803456 62.841797 41.619141 C 63.158311 41.623541 63.267394 41.616139 63.810547 41.662109 C 64.743554 41.741109 65.88914 41.871692 66.992188 42.009766 C 69.198279 42.285912 71.228516 42.591797 71.228516 42.591797 A 2.0002 2.0002 0 0 0 73.486328 41.019531 L 75.345703 32.046875 A 2.0002 2.0002 0 0 0 74.382812 29.90625 C 74.382812 29.90625 71.133467 28.035036 66.642578 27.599609 C 66.090982 27.546115 65.426373 27.499271 64.679688 27.474609 z M 64.5625 31.480469 C 65.220815 31.49913 65.798909 31.537536 66.257812 31.582031 C 68.505843 31.799995 70.045019 32.346394 71.105469 32.800781 L 69.949219 38.378906 C 69.131958 38.261707 68.776326 38.200049 67.490234 38.039062 C 66.356406 37.897137 65.171071 37.762533 64.146484 37.675781 C 63.28093 37.602496 62.653419 37.531534 61.927734 37.595703 L 61.148438 35.326172 A 1.0001 1.0001 0 0 0 60.152344 34.638672 A 1.0001 1.0001 0 0 0 59.255859 35.976562 L 60.072266 38.351562 C 59.92546 38.481433 59.808341 38.6265 59.691406 38.769531 L 55.824219 36.580078 A 1.0001571 1.0001571 0 0 0 54.837891 38.320312 L 58.833984 40.583984 L 55.708984 41.046875 A 1.0001 1.0001 0 1 0 56.001953 43.025391 L 58.876953 42.599609 C 58.925368 43.16459 58.998047 43.568359 58.998047 43.568359 A 2.0002 2.0002 0 0 0 60.117188 45.013672 C 60.117188 45.013672 62.072563 45.93283 64.189453 47.419922 C 66.306344 48.907014 68.389762 51.019662 68.841797 52.607422 C 69.709113 55.653154 69.60847 58.218584 68.494141 60.390625 C 67.379811 62.562666 65.152769 64.525954 61.138672 66.025391 C 60.389117 66.305447 59.62534 66.48023 58.861328 66.576172 L 58.271484 64.992188 A 1.0001 1.0001 0 0 0 57.357422 64.328125 A 1.0001 1.0001 0 0 0 56.396484 65.691406 L 56.75 66.640625 C 55.979071 66.601972 55.224709 66.501281 54.498047 66.353516 L 54.058594 63.640625 A 1.0001 1.0001 0 0 0 53.09375 62.787109 A 1.0001 1.0001 0 0 0 52.083984 63.960938 L 52.380859 65.792969 C 49.701718 64.913334 47.802734 63.6875 47.802734 63.6875 A 2.0002 2.0002 0 0 0 47.671875 63.605469 L 48.650391 56.533203 C 50.906567 57.481873 53.274652 58.165008 54.857422 58.564453 C 56.061516 58.868293 57.075209 58.908086 57.939453 58.736328 L 58.646484 60.507812 A 1.0001 1.0001 0 1 0 60.503906 59.767578 L 59.736328 57.835938 C 59.753264 57.819574 59.770628 57.803785 59.787109 57.787109 L 62.333984 58.703125 A 1.0001 1.0001 0 1 0 63.009766 56.822266 L 60.623047 55.962891 C 60.649559 55.602724 60.605883 55.24384 60.507812 54.898438 L 63.283203 53.537109 A 1.0001 1.0001 0 0 0 62.855469 51.632812 A 1.0001 1.0001 0 0 0 62.402344 51.740234 L 59.369141 53.226562 C 59.250898 53.13559 59.13272 53.044323 59 52.96875 C 54.408356 50.354505 52.418826 47.348636 51.519531 45.013672 C 50.620237 42.678708 50.820312 41.099609 50.820312 41.099609 A 1.0001 1.0001 0 0 0 50.822266 40.863281 L 51.273438 37.601562 A 2.0002 2.0002 0 0 0 51.392578 37.207031 C 51.681661 35.785254 52.36231 34.825611 53.410156 34.001953 C 54.458002 33.178295 55.903408 32.554734 57.498047 32.148438 C 59.092686 31.742141 60.822998 31.556644 62.384766 31.494141 C 63.165649 31.462891 63.904185 31.461808 64.5625 31.480469 z M 16.339844 31.888672 C 16.355297 31.890553 16.540741 31.926036 16.716797 31.962891 L 15.695312 33.503906 A 1.0001 1.0001 0 1 0 17.361328 34.609375 L 18.582031 32.769531 C 18.809945 32.931867 19.028009 33.122178 19.224609 33.347656 L 15.804688 37.300781 A 1.0001 1.0001 0 1 0 17.316406 38.609375 L 20.056641 35.443359 C 20.1472 36.013262 20.255429 36.760896 20.365234 37.695312 C 20.545442 39.22883 20.735108 41.098407 20.908203 42.902344 C 21.254394 46.510217 21.53125 49.859375 21.53125 49.859375 A 2.0002 2.0002 0 0 0 25.447266 50.248047 L 30.179688 33.841797 L 31.091797 36.234375 A 1.0002377 1.0002377 0 1 0 32.960938 35.521484 L 31.677734 32.160156 L 37.660156 32.259766 L 34.597656 45.324219 A 2.0002 2.0002 0 0 0 33.261719 46.724609 L 27.582031 66.728516 C 27.450608 66.744049 27.240643 66.764916 27.091797 66.783203 L 26.367188 62.806641 A 1.0001 1.0001 0 0 0 25.386719 61.970703 A 1.0001 1.0001 0 0 0 24.400391 63.164062 L 25.089844 66.960938 C 24.639889 66.983191 24.143986 66.99967 23.556641 67 C 22.67923 67.000493 21.798706 66.953871 21.005859 66.865234 L 22.283203 64.835938 A 1.0001 1.0001 0 0 0 21.390625 63.292969 A 1.0001 1.0001 0 0 0 20.589844 63.771484 L 18.939453 66.396484 C 18.553178 66.224305 18.362335 66.074464 18.394531 66.128906 C 18.362432 66.074644 18.320343 65.953054 18.285156 65.880859 L 19.230469 64.523438 A 1.0001 1.0001 0 0 0 18.412109 62.939453 A 1.0001 1.0001 0 0 0 17.589844 63.378906 L 17.480469 63.535156 C 17.227333 62.622029 16.969758 61.573932 16.740234 60.404297 C 16.262194 57.968237 15.826933 55.082763 15.402344 52.189453 L 18.132812 51.189453 A 1.0001 1.0001 0 0 0 17.806641 49.246094 A 1.0001 1.0001 0 0 0 17.443359 49.3125 L 15.101562 50.169922 C 15.009683 49.540346 14.917969 48.930751 14.826172 48.3125 L 17.773438 46.183594 A 1.0001 1.0001 0 0 0 17.228516 44.365234 A 1.0001 1.0001 0 0 0 16.601562 44.5625 L 14.490234 46.087891 C 14.263112 44.634165 14.032448 43.239608 13.791016 41.990234 C 13.536697 40.674176 13.273901 39.506722 12.970703 38.509766 C 12.667689 37.513413 12.418627 36.707865 11.710938 35.892578 C 10.615724 34.63101 9.0122926 33.286096 7.5273438 32.037109 L 16.339844 31.888672 z M 39.697266 32.333984 C 39.917127 32.333684 41.287946 32.329667 43.023438 32.386719 C 43.957932 32.417429 44.929842 32.465029 45.712891 32.535156 C 46.495939 32.605286 47.230516 32.798791 47.023438 32.714844 C 47.177669 32.777444 47.380193 33.018723 47.537109 33.486328 C 47.677575 33.90491 47.691792 34.198338 47.697266 34.271484 L 43.179688 66.880859 L 36.875 66.810547 L 36.964844 61.666016 L 38.835938 61.988281 A 1.0006924 1.0006924 0 0 0 39.173828 60.015625 L 37 59.642578 L 37.183594 49.1875 L 40.783203 48.716797 A 1.0001 1.0001 0 1 0 40.525391 46.734375 L 37.193359 47.167969 A 2.0002 2.0002 0 0 0 37.191406 47.125 L 39.986328 44.324219 A 1.0001 1.0001 0 0 0 39.257812 42.607422 A 1.0001 1.0001 0 0 0 38.570312 42.910156 L 36.804688 44.679688 L 39.697266 32.333984 z M 82.697266 32.800781 L 84.871094 32.849609 L 84.841797 34.722656 A 1.0001221 1.0001221 0 1 0 86.841797 34.753906 L 86.871094 32.894531 L 87.896484 32.916016 L 87.777344 34.558594 A 1.0001 1.0001 0 1 0 89.771484 34.705078 L 89.898438 32.960938 L 90.501953 32.974609 L 93.78125 52.892578 L 91.472656 53.59375 A 1.0002993 1.0002993 0 1 0 92.054688 55.507812 L 94.107422 54.882812 L 94.273438 55.884766 L 91.318359 56.960938 A 1.0001 1.0001 0 1 0 92.001953 58.839844 L 94.603516 57.892578 L 95.947266 66.056641 L 89.882812 66.25 L 89.451172 62.509766 A 2.0002 2.0002 0 0 0 87.451172 60.738281 L 79.576172 60.792969 A 2.0002 2.0002 0 0 0 77.636719 62.365234 L 76.775391 66.300781 L 68.875 66.15625 C 70.232415 64.985484 71.305465 63.673368 72.052734 62.216797 C 72.986845 60.396038 73.3908 58.418836 73.392578 56.378906 L 75.896484 57.396484 A 1.0001 1.0001 0 1 0 76.650391 55.544922 L 73.613281 54.308594 L 74.265625 52.763672 L 76.007812 53.324219 A 1.0003077 1.0003077 0 1 0 76.621094 51.419922 L 75.046875 50.914062 L 82.697266 32.800781 z M 41.363281 34.419922 C 40.816281 34.348922 40.314141 34.736203 40.244141 35.283203 C 40.173141 35.830203 40.560422 36.332344 41.107422 36.402344 C 41.654422 36.473344 42.156562 36.087063 42.226562 35.539062 C 42.297562 34.992063 41.910281 34.489922 41.363281 34.419922 z M 40.478516 39.212891 C 39.931516 39.141891 39.429375 39.529172 39.359375 40.076172 C 39.288375 40.623172 39.676609 41.125312 40.224609 41.195312 C 40.772609 41.266312 41.27375 40.877078 41.34375 40.330078 C 41.41475 39.783078 41.025516 39.282891 40.478516 39.212891 z M 84.855469 42.101562 A 1.0001 1.0001 0 0 0 83.957031 42.783203 L 80.509766 53.119141 A 1.0001 1.0001 0 0 0 81.621094 54.421875 L 87.191406 53.509766 A 1.0001 1.0001 0 0 0 88.005859 52.302734 L 85.880859 42.880859 A 1.0001 1.0001 0 0 0 84.855469 42.101562 z M 50.027344 46.591797 C 51.222043 49.160519 53.559818 52.173461 58.009766 54.707031 C 58.552657 55.016162 58.753966 55.733552 58.537109 56.173828 C 58.428681 56.393966 58.24072 56.601274 57.757812 56.740234 C 57.274907 56.879195 56.48345 56.911604 55.347656 56.625 C 53.699859 56.209144 51.159029 55.458315 48.9375 54.472656 L 50.027344 46.591797 z M 84.71875 46.822266 L 85.822266 51.708984 L 82.931641 52.181641 L 84.71875 46.822266 z M 41.664062 53.771484 C 41.117063 53.700484 40.616875 54.087766 40.546875 54.634766 C 40.475875 55.181766 40.863156 55.683906 41.410156 55.753906 C 41.957156 55.824906 42.458297 55.437625 42.529297 54.890625 C 42.600297 54.343625 42.211062 53.841484 41.664062 53.771484 z"/></svg>