<svg viewBox="0 0 72 72" xmlns="http://www.w3.org/2000/svg"><g fill="none" stroke="#000" stroke-miterlimit="10" stroke-width="2"><path d="m63.873874 21.905712c-.669065-2.519564-2.640217-4.503614-5.143584-5.176975-4.537-1.223749-22.73029-1.223749-22.73029-1.223749s-18.193191 0-22.730324 1.223749c-2.503136.673361-4.474637 2.657411-5.143644 5.176975-1.215727 4.566519-1.215727 14.094287-1.215727 14.094287s0 9.527636 1.215727 14.094587c.669007 2.519265 2.640508 4.503295 5.143644 5.17695 4.537133 1.223476 22.730324 1.223476 22.730324 1.223476s18.19329 0 22.73029-1.223476c2.503367-.673655 4.474519-2.657685 5.143584-5.17695 1.215821-4.566951 1.215821-14.094587 1.215821-14.094587s0-9.527768-1.215821-14.094287"/><path d="m30.049835 44.650447 15.205976-8.650051-15.205976-8.650879z" stroke-linecap="round" stroke-linejoin="round"/></g></svg>